<svg xmlns="http://www.w3.org/2000/svg" width="16" height="16" viewBox="0 0 13 19" fill="#ca9236">
										<path d="M6.46532 0.686035C3.26765 0.686035 0.651367 3.30231 0.651367 6.49999C0.651367 8.08776 2.2 10.9476 2.27636 11.0877C2.27881 11.0922 2.28058 11.0952 2.28318 11.0996L5.87299 17.1867C6.06347 17.5097 6.52849 17.5159 6.72747 17.198L10.4732 11.2154C10.4757 11.2113 10.4773 11.2088 10.4799 11.2049C10.562 11.0807 12.3374 8.37556 12.3374 6.55813C12.3374 3.30231 9.72113 0.686035 6.46532 0.686035ZM6.46532 9.69766C4.60486 9.69766 3.09323 8.18603 3.09323 6.32557C3.09323 4.4651 4.60486 2.95348 6.46532 2.95348C8.32579 2.95348 9.83741 4.4651 9.83741 6.32557C9.77927 8.24417 8.32579 9.69766 6.46532 9.69766Z" stroke="var(--mainColor)" stroke-width="1.25" stroke-miterlimit="10"></path>
									</svg>