<svg width="54" height="47" viewBox="0 0 54 47" fill="none" xmlns="http://www.w3.org/2000/svg">
<path opacity="0.3" d="M20.5397 46.92V26.94H9.91969C9.91969 24.9 10.0397 22.86 10.2797 20.82C10.6397 18.66 11.2397 16.74 12.0797 15.06C12.9197 13.38 13.9997 12.06 15.3197 11.1C16.6397 10.02 18.3197 9.47999 20.3597 9.47999V0.479992C16.9997 0.479992 14.0597 1.19999 11.5397 2.64C9.01969 4.07999 6.91969 5.99999 5.23969 8.4C3.67969 10.8 2.47969 13.62 1.63969 16.86C0.919688 19.98 0.559687 23.34 0.559687 26.94V46.92H20.5397ZM53.4797 46.92V26.94H42.8597C42.8597 24.9 42.9797 22.86 43.2197 20.82C43.5797 18.66 44.1797 16.74 45.0197 15.06C45.8597 13.38 46.9397 12.06 48.2597 11.1C49.5797 10.02 51.2597 9.47999 53.2997 9.47999V0.479992C49.9397 0.479992 46.9997 1.19999 44.4797 2.64C41.9597 4.07999 39.8597 5.99999 38.1797 8.4C36.6197 10.8 35.4197 13.62 34.5797 16.86C33.8597 19.98 33.4997 23.34 33.4997 26.94V46.92H53.4797Z" fill="#E4E4E4"/>
</svg>
