<svg width="73" height="13" viewBox="0 0 73 13" fill="none" xmlns="http://www.w3.org/2000/svg">
<path d="M6.5 0L8.19635 4.16518L12.6819 4.49139L9.24475 7.39182L10.3206 11.7586L6.5 9.386L2.6794 11.7586L3.75525 7.39182L0.318133 4.49139L4.80365 4.16518L6.5 0Z" fill="#F4B843"/>
<path d="M21.5 0L23.1963 4.16518L27.6819 4.49139L24.2447 7.39182L25.3206 11.7586L21.5 9.386L17.6794 11.7586L18.7553 7.39182L15.3181 4.49139L19.8037 4.16518L21.5 0Z" fill="#F4B843"/>
<path d="M36.5 0L38.1963 4.16518L42.6819 4.49139L39.2447 7.39182L40.3206 11.7586L36.5 9.386L32.6794 11.7586L33.7553 7.39182L30.3181 4.49139L34.8037 4.16518L36.5 0Z" fill="#F4B843"/>
<path d="M51.5 0L53.1963 4.16518L57.6819 4.49139L54.2447 7.39182L55.3206 11.7586L51.5 9.386L47.6794 11.7586L48.7553 7.39182L45.3181 4.49139L49.8037 4.16518L51.5 0Z" fill="#F4B843"/>
<path d="M66.5 0L68.1963 4.16518L72.6819 4.49139L69.2447 7.39182L70.3206 11.7586L66.5 9.386L62.6794 11.7586L63.7553 7.39182L60.3181 4.49139L64.8037 4.16518L66.5 0Z" fill="#F4B843"/>
</svg>
